<?xml version="1.0" standalone="no"?>
<!DOCTYPE svg PUBLIC "-//W3C//DTD SVG 20010904//EN"
 "http://www.w3.org/TR/2001/REC-SVG-20010904/DTD/svg10.dtd">
<svg version="1.0" xmlns="http://www.w3.org/2000/svg"
 width="512.000000pt" height="512.000000pt" viewBox="0 0 512.000000 512.000000"
 preserveAspectRatio="xMidYMid meet">

<g transform="translate(0.000000,512.000000) scale(0.100000,-0.100000)"
fill="#000000" stroke="none">
<path d="M1915 5107 c-55 -19 -97 -41 -118 -64 -15 -17 -27 -19 -97 -15 -75 4
-85 2 -145 -27 -35 -18 -77 -47 -92 -65 -20 -24 -44 -38 -83 -49 -95 -28 -169
-98 -199 -188 -9 -27 -21 -41 -51 -54 -51 -23 -135 -112 -161 -170 -11 -25
-23 -68 -26 -96 -4 -32 -19 -72 -39 -107 -19 -30 -37 -71 -40 -90 -12 -61 4
-223 30 -327 l26 -100 -30 -56 c-29 -56 -30 -60 -30 -201 0 -134 2 -148 25
-195 31 -61 82 -103 145 -119 l45 -11 13 -69 c36 -203 153 -402 307 -525 l65
-53 0 -163 c0 -224 1 -222 -125 -250 -98 -23 -98 -23 -112 -3 -21 30 -67 50
-116 50 -62 0 -248 -35 -284 -53 -37 -19 -63 -57 -70 -102 l-5 -33 -132 -32
c-147 -36 -245 -77 -326 -138 -113 -85 -207 -227 -247 -372 -16 -59 -18 -118
-18 -640 l0 -575 23 -46 c29 -60 86 -116 142 -143 l45 -21 1757 -3 c1733 -2
1757 -2 1810 18 70 26 117 66 153 131 l30 54 3 550 c3 483 1 561 -14 642 l-17
91 68 111 67 110 29 -14 c40 -21 103 -19 150 6 l40 20 44 -27 c43 -28 43 -28
38 -78 -6 -73 16 -103 143 -186 84 -55 114 -70 143 -70 76 0 98 25 307 346 61
95 107 176 111 197 9 61 -19 101 -119 169 -50 33 -106 67 -126 75 -44 18 -92
10 -130 -22 l-29 -24 -48 33 c-46 31 -48 34 -50 82 -2 54 -30 117 -67 150 -39
36 -409 277 -472 308 -114 55 -165 68 -283 73 -99 5 -122 3 -184 -17 -132 -43
-266 -152 -276 -227 -7 -51 17 -107 57 -131 20 -13 60 -22 117 -26 155 -13
199 -47 166 -129 -25 -63 -24 -165 4 -202 l21 -30 -36 -50 c-20 -27 -37 -52
-38 -53 -2 -2 -27 5 -56 16 -29 11 -106 32 -170 46 -114 27 -118 28 -118 54 0
33 -31 86 -62 106 -27 17 -231 56 -295 56 -51 0 -80 -12 -109 -46 l-20 -25
-99 24 c-96 23 -99 25 -111 58 -8 21 -13 94 -13 194 l0 160 66 55 c147 121
253 289 294 465 34 144 31 139 64 145 73 16 141 76 166 147 9 25 14 85 14 173
0 133 0 136 -32 191 l-31 56 24 94 c56 213 49 343 -21 447 -15 22 -25 51 -25
72 -1 44 -37 135 -74 183 -16 20 -56 55 -89 78 -50 33 -66 51 -89 99 -40 84
-118 146 -207 165 -20 4 -46 22 -65 43 -17 19 -58 48 -91 64 -53 25 -70 28
-142 26 -72 -2 -86 1 -105 19 -66 60 -205 89 -293 60z m161 -155 c18 -9 51
-30 75 -47 41 -29 47 -30 133 -28 105 3 123 -4 178 -77 31 -41 38 -45 89 -51
78 -8 105 -30 146 -116 31 -66 41 -77 89 -104 55 -31 109 -85 123 -123 5 -11
12 -46 16 -76 4 -36 19 -75 43 -114 33 -56 36 -65 34 -136 -2 -83 -44 -269
-64 -282 -7 -4 -31 -8 -53 -8 -37 0 -139 -20 -177 -35 -15 -6 -17 11 -20 192
-3 194 -4 199 -31 255 -54 109 -166 178 -290 178 -35 0 -105 -11 -158 -25
-128 -33 -248 -34 -403 0 -64 14 -140 25 -169 25 -115 0 -217 -63 -276 -170
l-36 -65 -3 -198 c-4 -180 -5 -198 -20 -192 -38 15 -140 35 -177 35 -22 0 -45
4 -52 8 -19 12 -55 171 -61 270 l-5 93 36 52 c28 40 39 69 46 119 14 102 49
151 141 198 43 22 72 58 89 111 20 63 83 109 150 109 27 0 46 6 56 18 8 9 32
37 54 62 l40 45 98 0 c101 1 142 12 174 51 36 43 131 57 185 26z m-282 -747
c84 -18 146 -25 225 -25 84 0 131 6 205 25 53 14 118 25 144 25 62 0 120 -33
149 -85 22 -38 23 -50 23 -273 0 -253 4 -277 55 -300 40 -19 78 -14 115 13 40
30 76 41 184 56 109 15 111 13 111 -141 0 -110 -2 -121 -22 -142 -18 -17 -37
-23 -88 -26 -80 -5 -105 -29 -105 -99 0 -130 -74 -325 -166 -438 -149 -181
-371 -286 -609 -288 -139 -1 -227 19 -360 83 -244 118 -389 318 -425 582 -6
46 -13 93 -16 106 -6 29 -57 52 -116 52 -29 0 -49 7 -65 22 -22 20 -23 29 -23
143 0 157 2 159 120 144 89 -11 136 -26 177 -59 43 -34 107 -23 145 24 16 19
18 48 18 255 0 217 2 238 21 278 26 54 87 93 146 93 23 0 93 -11 157 -25z
m2085 -1622 c30 -8 80 -28 112 -43 97 -50 447 -287 454 -309 8 -26 4 -34 -127
-233 -61 -93 -116 -168 -124 -168 -26 0 -409 260 -412 280 -2 10 2 28 8 39 6
11 15 43 20 72 22 116 -40 210 -165 248 -37 12 -84 21 -105 21 -50 0 -57 13
-23 38 110 77 221 94 362 55z m-2084 -203 c178 -42 352 -32 523 28 l82 29 0
-126 c1 -94 5 -139 18 -178 l18 -51 -213 -197 c-190 -174 -216 -195 -231 -183
-32 25 -407 372 -410 379 -2 4 4 28 12 54 11 32 16 84 16 175 l0 130 52 -21
c29 -11 88 -29 133 -39z m2775 -376 c23 -15 37 -31 33 -38 -4 -6 -31 -48 -60
-94 l-53 -83 -38 22 c-20 12 -41 26 -45 30 -8 6 107 189 118 189 3 0 23 -12
45 -26z m-3470 -409 l0 -415 -100 0 -100 0 0 94 c0 113 -14 140 -75 140 -27 0
-43 -6 -56 -23 -17 -21 -19 -42 -19 -187 0 -212 -16 -267 -111 -384 -58 -72
-87 -124 -114 -204 -23 -69 -25 -88 -25 -270 l0 -196 -114 0 c-101 0 -117 2
-147 23 -71 47 -69 32 -69 612 0 580 3 605 65 724 76 145 210 237 413 285
l102 24 0 -76 c0 -64 3 -79 22 -99 29 -31 72 -30 103 2 24 23 25 28 25 179 l0
154 78 15 c42 8 87 15 100 16 l22 1 0 -415z m1920 400 c47 -8 86 -15 88 -15 1
0 2 -180 2 -400 l0 -400 -100 0 -100 0 0 415 c0 325 3 415 13 415 6 0 50 -7
97 -15z m1857 -36 c35 -23 62 -45 61 -49 -10 -25 -255 -390 -261 -390 -14 0
-128 81 -125 89 6 16 253 390 257 391 3 0 33 -19 68 -41z m-3184 -188 l158
-146 -48 -13 c-26 -7 -77 -13 -113 -14 -121 -1 -161 29 -280 208 -50 73 -90
137 -90 142 0 5 30 16 68 24 l67 15 40 -36 c22 -19 111 -100 198 -180z m940
199 c31 -7 57 -17 57 -21 0 -16 -168 -264 -196 -291 -41 -38 -97 -59 -163 -60
-63 -1 -164 20 -159 32 6 18 384 359 393 356 6 -2 36 -9 68 -16z m1325 -180
c3 -8 -256 -439 -279 -464 -7 -8 -148 74 -187 109 -11 10 18 57 148 238 l160
226 78 -50 c42 -28 78 -54 80 -59z m-558 -5 c52 -14 98 -29 102 -33 5 -6 -201
-305 -233 -337 -5 -5 -9 67 -9 193 l0 202 23 0 c12 0 65 -11 117 -25z m-2082
-113 c96 -141 177 -200 311 -223 66 -12 110 -7 282 35 l96 23 114 -28 c155
-38 197 -42 264 -30 132 25 224 93 317 233 l53 82 3 -279 c1 -154 0 -285 -3
-292 -3 -11 -155 -13 -752 -11 l-748 3 -3 288 c-1 158 0 287 3 287 2 0 31 -39
63 -88z m2173 -417 c54 -36 99 -67 99 -71 0 -3 -143 -237 -317 -520 l-317
-514 -199 0 c-156 0 -197 3 -191 13 4 6 43 63 87 126 87 124 98 160 56 193
-25 21 -68 23 -92 6 -9 -7 -67 -85 -130 -173 l-113 -160 -862 -3 -862 -2 0
192 c1 228 8 254 107 384 67 88 92 133 118 214 32 100 -91 90 1082 90 568 0
1033 -2 1033 -5 0 -3 -45 -69 -100 -146 -61 -86 -100 -151 -100 -166 0 -30 42
-73 72 -73 13 0 32 6 43 14 11 8 124 161 250 340 127 179 231 325 233 326 2 0
48 -29 103 -65z m347 -642 l-3 -381 -25 -27 c-44 -47 -71 -55 -183 -55 l-104
0 -5 197 c-4 177 -8 206 -30 270 l-24 72 185 301 186 300 3 -147 c1 -82 1
-320 0 -530z m-469 -300 l1 -163 -115 0 c-63 0 -115 3 -115 6 0 4 48 85 107
181 83 134 109 170 114 156 4 -10 8 -91 8 -180z"/>
<path d="M1120 863 c-39 -50 -3 -123 60 -123 63 0 99 73 60 123 -17 21 -30 27
-60 27 -30 0 -43 -6 -60 -27z"/>
</g>
</svg>
